<?xml version="1.0" standalone="no"?>
<!DOCTYPE svg PUBLIC "-//W3C//DTD SVG 20010904//EN"
 "http://www.w3.org/TR/2001/REC-SVG-20010904/DTD/svg10.dtd">
<svg version="1.0" xmlns="http://www.w3.org/2000/svg"
 width="483.000000pt" height="499.000000pt" viewBox="0 0 483.000000 499.000000"
 preserveAspectRatio="xMidYMid meet">

<g transform="translate(0.000000,499.000000) scale(0.100000,-0.100000)"
fill="#000000" stroke="none">
<path d="M0 2495 l0 -2495 2415 0 2415 0 0 2495 0 2495 -2415 0 -2415 0 0
-2495z m2528 2095 c189 -12 261 -25 429 -80 268 -86 529 -235 763 -435 229
-195 455 -542 563 -865 42 -123 81 -305 96 -442 21 -191 8 -486 -30 -668 -19
-93 -91 -313 -115 -350 -12 -19 -29 -57 -38 -85 -9 -27 -29 -65 -45 -84 -16
-18 -34 -51 -41 -72 -7 -21 -20 -46 -29 -56 -19 -21 -75 -96 -132 -177 -23
-32 -101 -118 -173 -191 -100 -101 -158 -150 -246 -207 -189 -124 -349 -197
-539 -247 l-109 -29 -7 32 c-9 43 -19 1921 -10 2010 l6 73 53 13 c45 11 61 10
109 -4 31 -9 61 -24 65 -34 5 -9 13 -264 17 -567 5 -441 12 -933 15 -1137 0
-18 5 -28 14 -28 42 0 284 133 372 205 121 99 279 275 361 404 41 63 117 229
158 341 68 190 99 463 84 756 -10 179 -35 315 -90 479 -122 359 -298 602 -604
832 -137 103 -276 182 -410 232 -33 13 -92 36 -131 52 -93 37 -236 52 -504 52
-185 0 -212 -2 -275 -23 -216 -69 -357 -222 -386 -420 -30 -210 27 -433 141
-550 111 -114 252 -173 415 -174 115 0 185 14 270 57 110 55 220 194 259 327
9 30 24 118 32 195 9 77 20 146 24 154 8 16 21 18 116 22 77 2 100 -10 108
-58 15 -94 -1 -266 -32 -355 -40 -109 -84 -204 -106 -228 -13 -14 -31 -38 -39
-55 -8 -16 -53 -69 -99 -117 -70 -73 -97 -93 -168 -127 -115 -55 -184 -72
-321 -78 -142 -7 -242 11 -370 67 -120 51 -185 98 -285 203 -69 72 -93 107
-134 190 -67 138 -83 211 -84 377 -1 140 6 184 50 322 35 106 89 186 208 303
79 79 119 110 181 142 122 62 232 95 349 103 56 4 108 8 116 8 8 1 88 -3 178
-8z m-1302 -592 c-4 -101 -11 -246 -15 -323 -5 -77 -9 -651 -10 -1275 -2 -928
0 -1138 11 -1152 16 -19 122 -107 161 -133 17 -11 32 -14 37 -9 6 6 11 375 12
895 3 828 4 887 21 912 9 15 21 27 26 27 5 0 51 -33 103 -73 l93 -73 3 -921 2
-921 63 -29 c80 -38 134 -56 147 -48 7 4 10 298 10 883 0 490 4 883 9 891 10
16 46 12 156 -18 l70 -19 7 -58 c3 -33 9 -394 14 -804 5 -568 4 -800 -6 -973
-7 -125 -16 -227 -19 -227 -3 0 -49 7 -101 15 -444 71 -904 357 -1198 743
-251 329 -378 636 -423 1021 -14 119 -6 425 15 536 81 440 225 734 520 1058
86 96 268 257 289 257 6 0 7 -66 3 -182z m2305 -431 c56 -38 82 -84 76 -139
-5 -58 -44 -121 -89 -144 -44 -23 -124 -21 -157 4 -62 46 -88 156 -54 222 41
78 151 106 224 57z m-275 -531 c108 -38 136 -51 201 -100 158 -119 289 -309
334 -484 39 -153 34 -478 -9 -560 -11 -20 -38 -72 -60 -115 -74 -143 -174
-235 -310 -284 -78 -29 -162 -31 -162 -5 0 9 -5 66 -10 126 -8 76 -7 112 0
121 6 7 45 23 87 36 94 29 159 83 193 161 20 46 24 75 28 209 5 180 -2 215
-73 357 -34 69 -60 104 -108 149 -63 59 -77 67 -191 117 l-59 26 7 48 c5 39
55 222 61 222 1 0 33 -11 71 -24z m-632 -513 c9 -176 11 -1816 2 -1904 l-8
-76 -111 -6 c-72 -5 -115 -3 -122 4 -11 11 -24 1571 -15 1879 l5 175 38 12
c35 12 135 29 183 32 20 1 22 -5 28 -116z m1234 -1672 c44 -22 62 -55 62 -113
0 -34 -6 -47 -39 -79 -33 -33 -45 -39 -81 -39 -34 0 -48 6 -76 34 -29 29 -34
41 -34 83 0 55 17 85 64 114 39 24 57 24 104 0z"/>
<path d="M935 3502 c-22 -15 -84 -110 -123 -187 -54 -109 -118 -317 -138 -450
-25 -160 -25 -527 -1 -655 20 -105 66 -249 122 -383 41 -96 130 -241 144 -233
7 4 15 1916 8 1916 -1 0 -7 -4 -12 -8z"/>
</g>
</svg>
