<?xml version="1.0" standalone="no"?>
<!DOCTYPE svg PUBLIC "-//W3C//DTD SVG 20010904//EN"
 "http://www.w3.org/TR/2001/REC-SVG-20010904/DTD/svg10.dtd">
<svg version="1.0" xmlns="http://www.w3.org/2000/svg"
 width="482.000000pt" height="472.000000pt" viewBox="0 0 482.000000 472.000000"
 preserveAspectRatio="xMidYMid meet">

<g transform="translate(0.000000,472.000000) scale(0.100000,-0.100000)"
fill="#000000" stroke="none">
<path d="M2325 4360 c-117 -9 -234 -43 -350 -103 -62 -32 -103 -64 -181 -142
-125 -123 -176 -200 -214 -325 -40 -130 -54 -227 -47 -340 8 -135 31 -220 89
-340 46 -95 60 -115 157 -210 118 -118 180 -156 342 -212 90 -31 101 -32 244
-33 173 0 231 12 365 76 71 34 98 54 168 127 46 48 91 101 99 117 8 17 27 42
41 58 15 15 36 53 48 85 12 31 33 84 47 117 38 88 58 275 40 379 -8 52 -44 67
-133 56 -36 -4 -68 -6 -72 -3 -15 8 -27 -37 -38 -152 -23 -226 -69 -342 -178
-454 -100 -102 -217 -146 -387 -145 -163 1 -304 60 -415 174 -114 117 -171
341 -141 550 29 198 170 351 386 420 63 21 90 23 275 23 227 0 413 -16 469
-39 20 -8 79 -31 131 -51 305 -114 561 -301 781 -570 143 -174 263 -436 323
-703 68 -306 46 -776 -49 -1040 -41 -112 -117 -278 -158 -341 -82 -129 -240
-305 -361 -404 -88 -72 -330 -205 -372 -205 -9 0 -14 10 -14 28 -1 15 -2 158
-5 317 -2 160 -7 533 -10 830 -4 297 -12 548 -17 557 -4 10 -34 25 -65 34 -48
14 -64 15 -109 4 l-53 -13 -6 -73 c-9 -89 1 -1967 10 -2010 l7 -32 108 28
c287 76 566 234 765 434 138 138 161 165 277 326 18 25 40 53 49 63 9 10 22
35 29 56 7 21 25 54 41 72 16 19 36 57 45 84 9 28 26 66 38 85 13 19 41 94 64
165 128 404 123 885 -14 1295 -105 315 -329 661 -556 858 -153 134 -374 277
-556 360 -106 49 -304 115 -409 137 -62 13 -368 38 -413 33 -8 0 -60 -4 -115
-8z"/>
<path d="M1209 3872 c-143 -118 -298 -294 -412 -467 -119 -180 -206 -383 -256
-597 -51 -215 -56 -260 -56 -498 0 -190 4 -244 23 -347 57 -311 165 -555 370
-838 267 -369 653 -639 1082 -759 56 -16 251 -49 255 -44 11 15 25 469 24 778
-1 475 -13 1268 -20 1275 -9 9 -179 55 -203 55 -13 0 -27 -7 -30 -16 -3 -9 -6
-409 -6 -889 0 -583 -3 -876 -10 -880 -13 -8 -67 10 -147 48 l-63 30 0 918 0
918 -67 54 c-122 95 -133 102 -150 85 -8 -8 -19 -33 -23 -54 -5 -22 -10 -425
-10 -901 0 -588 -3 -864 -10 -868 -16 -10 -101 51 -188 133 l-24 23 2 1137 c1
625 6 1198 11 1272 16 268 22 510 12 510 -5 0 -52 -35 -104 -78z m-171 -1547
c0 -526 -5 -958 -9 -961 -13 -8 -103 136 -139 223 -59 139 -99 260 -122 365
-19 91 -22 132 -22 338 1 168 5 266 17 345 21 134 85 341 139 450 48 95 116
194 135 195 1 0 2 -430 1 -955z"/>
<path d="M3449 3337 c-50 -33 -71 -80 -65 -145 9 -98 61 -154 142 -155 62 -1
107 23 141 74 37 57 42 123 11 169 -55 80 -156 106 -229 57z"/>
<path d="M3247 2743 c-15 -49 -30 -109 -33 -136 l-7 -47 69 -30 c110 -49 115
-52 180 -113 46 -43 74 -81 107 -145 72 -138 80 -179 75 -361 -4 -135 -7 -163
-28 -209 -34 -78 -99 -132 -193 -161 -42 -13 -81 -29 -87 -36 -7 -9 -8 -45 0
-121 5 -60 10 -117 10 -126 0 -26 84 -24 162 5 130 47 239 144 304 270 17 34
43 85 58 114 22 41 30 73 38 165 33 365 -43 593 -271 818 -93 91 -163 135
-283 176 -39 13 -72 24 -73 24 -1 0 -14 -39 -28 -87z"/>
<path d="M2603 2399 c-34 -5 -79 -15 -100 -22 l-38 -12 -5 -150 c-9 -261 5
-1894 16 -1905 6 -6 51 -7 121 -3 l111 6 8 66 c9 77 7 1714 -2 1904 -7 145 4
132 -111 116z"/>
<path d="M3844 621 c-47 -29 -64 -59 -64 -114 0 -42 5 -54 34 -83 28 -28 42
-34 76 -34 36 0 48 6 81 39 33 32 39 45 39 80 0 56 -22 95 -64 115 -44 21 -64
20 -102 -3z"/>
</g>
</svg>
